<mxfile host="app.diagrams.net" modified="2023-03-10T07:17:33.664Z" agent="5.0 (Windows NT 10.0; Win64; x64) AppleWebKit/537.36 (KHTML, like Gecko) Chrome/110.0.0.0 Safari/537.36" etag="-pwhu8KwJ0A2sVbkDdBW" version="21.0.6" type="github">
  <diagram name="ページ1" id="uf4CEK8pUKt36dHwKIQa">
    <mxGraphModel dx="410" dy="451" grid="1" gridSize="10" guides="1" tooltips="1" connect="1" arrows="1" fold="1" page="1" pageScale="1" pageWidth="827" pageHeight="1169" math="0" shadow="0">
      <root>
        <mxCell id="0" />
        <mxCell id="1" parent="0" />
        <mxCell id="a1uq61BZDiTAaxtRskVT-1" value="ゲーム開始" style="rounded=1;whiteSpace=wrap;html=1;" vertex="1" parent="1">
          <mxGeometry x="414" y="50" width="120" height="60" as="geometry" />
        </mxCell>
        <mxCell id="a1uq61BZDiTAaxtRskVT-2" value="初期画面" style="rounded=0;whiteSpace=wrap;html=1;" vertex="1" parent="1">
          <mxGeometry x="414" y="170" width="120" height="60" as="geometry" />
        </mxCell>
        <mxCell id="a1uq61BZDiTAaxtRskVT-7" value="モード選択" style="rhombus;whiteSpace=wrap;html=1;" vertex="1" parent="1">
          <mxGeometry x="370" y="310" width="220" height="80" as="geometry" />
        </mxCell>
        <mxCell id="a1uq61BZDiTAaxtRskVT-8" value="中級モード" style="rounded=0;whiteSpace=wrap;html=1;" vertex="1" parent="1">
          <mxGeometry x="440" y="460" width="120" height="60" as="geometry" />
        </mxCell>
        <mxCell id="a1uq61BZDiTAaxtRskVT-9" value="初期モード" style="rounded=0;whiteSpace=wrap;html=1;" vertex="1" parent="1">
          <mxGeometry x="270" y="460" width="120" height="60" as="geometry" />
        </mxCell>
        <mxCell id="a1uq61BZDiTAaxtRskVT-10" value="上級モード" style="rounded=0;whiteSpace=wrap;html=1;" vertex="1" parent="1">
          <mxGeometry x="600" y="460" width="120" height="60" as="geometry" />
        </mxCell>
        <mxCell id="a1uq61BZDiTAaxtRskVT-11" value="DB" style="shape=cylinder3;whiteSpace=wrap;html=1;boundedLbl=1;backgroundOutline=1;size=15;" vertex="1" parent="1">
          <mxGeometry x="470" y="600" width="60" height="80" as="geometry" />
        </mxCell>
        <mxCell id="a1uq61BZDiTAaxtRskVT-12" value="" style="rounded=0;whiteSpace=wrap;html=1;" vertex="1" parent="1">
          <mxGeometry x="440" y="770" width="120" height="60" as="geometry" />
        </mxCell>
        <mxCell id="a1uq61BZDiTAaxtRskVT-13" value="図鑑" style="rounded=0;whiteSpace=wrap;html=1;" vertex="1" parent="1">
          <mxGeometry x="40" y="330" width="120" height="60" as="geometry" />
        </mxCell>
        <mxCell id="a1uq61BZDiTAaxtRskVT-14" value="図鑑DB" style="shape=cylinder3;whiteSpace=wrap;html=1;boundedLbl=1;backgroundOutline=1;size=15;" vertex="1" parent="1">
          <mxGeometry x="100" y="490" width="60" height="80" as="geometry" />
        </mxCell>
        <mxCell id="a1uq61BZDiTAaxtRskVT-15" value="" style="rounded=0;whiteSpace=wrap;html=1;" vertex="1" parent="1">
          <mxGeometry x="370" y="910" width="260" height="60" as="geometry" />
        </mxCell>
        <mxCell id="a1uq61BZDiTAaxtRskVT-16" value="" style="rounded=1;whiteSpace=wrap;html=1;" vertex="1" parent="1">
          <mxGeometry x="440" y="1050" width="120" height="60" as="geometry" />
        </mxCell>
      </root>
    </mxGraphModel>
  </diagram>
</mxfile>
